<svg id="Layer_1" data-name="Layer 1" xmlns="http://www.w3.org/2000/svg" xmlns:xlink="http://www.w3.org/1999/xlink" viewBox="0 0 224.8 28.21"><defs><style>.cls-1{fill:#15fcd0;}</style></defs><title>logo2</title><path class="cls-1" d="M226.29,426.68l-6.37-6.39v6.39h-3.55V413.17h1.44l6.39,6.38v-6.38h3.55v13.51Z" transform="translate(-185.7 -406.84)"/><path class="cls-1" d="M230.89,413.17h3.55v13.51h-3.55Z" transform="translate(-185.7 -406.84)"/><path class="cls-1" d="M245.44,426.68l-2.09-3.59h-2.19v3.59h-3.55V413.17h5.69a5,5,0,0,1,3.37,8.61l2.86,4.9ZM241.16,420h2.19a1.92,1.92,0,0,0,2-1.92,2,2,0,0,0-2-1.95h-2.19Z" transform="translate(-185.7 -406.84)"/><path class="cls-1" d="M261,421.87l-2.23,4.81h-2.56L250,413.17h3.89l3.82,8.27,2.57-5.62h1.5l2.57,5.62,3.84-8.27h3.89l-6.25,13.51h-2.56Z" transform="translate(-185.7 -406.84)"/><path class="cls-1" d="M271.9,426.68l6.3-13.51h1.6l6.36,13.51h-3.55l-.83-1.77h-5.53l-.81,1.77Zm5.74-4.76h2.76L279,419Z" transform="translate(-185.7 -406.84)"/><path class="cls-1" d="M298.32,426.68,292,420.29v6.39H288.4V413.17h1.44l6.4,6.38v-6.38h3.54v13.51Z" transform="translate(-185.7 -406.84)"/><path class="cls-1" d="M311.48,413.17H315v13.51h-3.55Z" transform="translate(-185.7 -406.84)"/><path class="cls-1" d="M328.11,426.68l-6.37-6.39v6.39h-3.55V413.17h1.44l6.4,6.38v-6.38h3.54v13.51Z" transform="translate(-185.7 -406.84)"/><path class="cls-1" d="M332.74,413.17h8.46v2.92h-4.92v2.2h4.34v3h-4.34v5.39h-3.54Z" transform="translate(-185.7 -406.84)"/><path class="cls-1" d="M350.65,413.17a6.76,6.76,0,1,1-6.73,6.77A6.77,6.77,0,0,1,350.65,413.17Zm0,3.53a3.23,3.23,0,1,0,3.22,3.23A3.22,3.22,0,0,0,350.65,416.7Z" transform="translate(-185.7 -406.84)"/><path class="cls-1" d="M359.84,413.16h10.65v3.52H366.9v10h-3.54v-10h-3.52Z" transform="translate(-185.7 -406.84)"/><path class="cls-1" d="M373.38,413.17h8.39v2.94h-4.84v2.2h4.28v3h-4.28v2.49h4.84v2.9h-8.39Z" transform="translate(-185.7 -406.84)"/><path class="cls-1" d="M393.45,417.64a3.15,3.15,0,0,0-2.27-.88,3.17,3.17,0,1,0,2.27,5.43l2.52,2.49a6.75,6.75,0,1,1-4.79-11.51,6.68,6.68,0,0,1,4.76,2Z" transform="translate(-185.7 -406.84)"/><path class="cls-1" d="M402.67,413.17V418H407v-4.81h3.55v13.51H407v-5.15h-4.28v5.15h-3.55V413.17Z" transform="translate(-185.7 -406.84)"/><image width="1200" height="1200" transform="scale(0.02)" xlink:href="logo.png"/></svg>